PathFileType	3	(X/Y/Z)	F:\ViconData\AntennenMessung\Messung1\Session1\ID03.trc
DataRate	CameraRate	NumFrames	NumMarkers	Units	OrigDataRate	OrigDataStartFrame	OrigNumFrames
120.0	120.0	6	70	mm	120.0	871	1160	
Frame#	Time	Ashort			Along			Atop			A4			Bshort			Blong			Btop			B4			Cshort			Clong			Ctop			C4			Dshort			Dlong			Dtop			D4			Eshort			Elong			Etop			E4			Fshort			Flong			Ftop			F4			Gshort			Glong			Gtop			G4			Hshort			Hlong			Htop			H4			I1			I2			I3			I4			I5			WandAshort			WandAlong			WandAtop			WandA4			WandA15			WandBshort			WandB4			WandB5			WandBtop			WandBlong			WandCshort			WandClong			WandCtop			WandC4			WandC5			Acenter			Aantenna			Bcenter			Bantenna			Ccenter			Cantenna			Dcenter			Dantenna			Ecenter			Eantenna			Fcenter			Fantenna			Gcenter			Gantenna			Hcenter			Hantenna			Icenter			Iantenna			
		X1	Y1	Z1	X2	Y2	Z2	X3	Y3	Z3	X4	Y4	Z4	X5	Y5	Z5	X6	Y6	Z6	X7	Y7	Z7	X8	Y8	Z8	X9	Y9	Z9	X10	Y10	Z10	X11	Y11	Z11	X12	Y12	Z12	X13	Y13	Z13	X14	Y14	Z14	X15	Y15	Z15	X16	Y16	Z16	X17	Y17	Z17	X18	Y18	Z18	X19	Y19	Z19	X20	Y20	Z20	X21	Y21	Z21	X22	Y22	Z22	X23	Y23	Z23	X24	Y24	Z24	X25	Y25	Z25	X26	Y26	Z26	X27	Y27	Z27	X28	Y28	Z28	X29	Y29	Z29	X30	Y30	Z30	X31	Y31	Z31	X32	Y32	Z32	X33	Y33	Z33	X34	Y34	Z34	X35	Y35	Z35	X36	Y36	Z36	X37	Y37	Z37	X38	Y38	Z38	X39	Y39	Z39	X40	Y40	Z40	X41	Y41	Z41	X42	Y42	Z42	X43	Y43	Z43	X44	Y44	Z44	X45	Y45	Z45	X46	Y46	Z46	X47	Y47	Z47	X48	Y48	Z48	X49	Y49	Z49	X50	Y50	Z50	X51	Y51	Z51	X52	Y52	Z52	X53	Y53	Z53	X54	Y54	Z54	X55	Y55	Z55	X56	Y56	Z56	X57	Y57	Z57	X58	Y58	Z58	X59	Y59	Z59	X60	Y60	Z60	X61	Y61	Z61	X62	Y62	Z62	X63	Y63	Z63	X64	Y64	Z64	X65	Y65	Z65	X66	Y66	Z66	X67	Y67	Z67	X68	Y68	Z68	X69	Y69	Z69	X70	Y70	Z70	
871	7.25	-1038.3303	214.66377	-1644.201	-1109.3005	203.44965	-1599.5525	-1063.5712	172.67859	-1625.6053	-1054.1395	262.07944	-1634.959	-1352.9506	235.43732	1003.9345	-1281.3281	227.12378	1052.3345	-1323.1049	194.16539	1020.7801	-1284.6132	287.87787	1052.7114	813.8324	187.68388	1209.5114	892.41571	178.42706	1179.1959	844.30225	145.52147	1198.1914	860.49646	292.52057	1167.2664	1115.8022	209.75905	-1401.7258	1056.2321	194.08829	-1460.217	1094.9178	162.04521	-1423.8895	1069.8717	238.59985	-1425.9482	-1204.4717	1685.9469	-1563.3413	-1129.0978	1688.2101	-1606.097	-1173.1067	1724.37	-1581.9597	-1133.5221	1581.061	-1603.5355	-1239.7363	1699.2524	1119.2856	-1309.4268	1698.7959	1071.7849	-1270.4116	1736.2295	1096.6868	-1244.6115	1594.2739	1106.4119	988.82117	1664.2321	1162.2595	955.75244	1702.3135	1181.1338	922.63	1661.9846	1214.8292	939.79639	1659.2747	1159.8936	999.22772	1668.5731	-1579.5045	1058.8525	1670.1533	-1518.649	1025.0818	1708.011	-1551.1451	1059.3021	1672.2175	-1585.6487	-552.40063	1664.1874	-294.62021	-557.4411	1665.2478	-210.17278	-555.18848	1701.4076	-257.3161	-586.62891	1662.5441	-259.83246	-506.88184	1666.842	-254.73445																																														-1068.9999	209.81761	-1624.9062	-1074.6395	248.40085	-1624.1801	-1321.6472	231.80377	1025.0881	-1320.1477	270.52216	1029.5199	848.06598	183.65129	1196.3048	851.89233	222.4157	1194.3868	1088.6552	202.61761	-1428.3812	1082.7408	240.93246	-1432.623	-1171.9012	1686.9248	-1581.8168	-1170.6466	1647.9453	-1581.6681	-1271.032	1699.0474	1097.9545	-1271.6824	1660.0754	1099.2834	953.52301	1704.8807	1182.4061	972.95135	1731.8578	1162.0155	1026.5698	1669.2977	-1551.5979	1028.0679	1630.3292	-1552.0538	-554.65668	1664.662	-256.823	-554.09235	1625.6696	-256.29974
872	7.2583333	-1038.34	214.67397	-1644.196	-1109.3273	203.45415	-1599.548	-1063.5975	173.09535	-1625.7738	-1054.1721	262.07422	-1634.9574	-1353.0676	235.16394	1003.8654	-1281.2861	227.13779	1052.3132	-1323.1063	194.17072	1020.8204	-1284.7378	287.81403	1052.8302	813.84845	187.70343	1209.4628	892.35895	178.37273	1179.1819	844.61041	145.13727	1198.2953	860.56372	292.57758	1167.3772	1115.7407	209.45792	-1401.5883	1056.212	194.0799	-1460.2196	1094.9769	162.11359	-1423.9106	1069.8947	238.62265	-1425.9321	-1204.4728	1685.9438	-1563.3401	-1129.0997	1688.2435	-1606.1274	-1173.1379	1724.3248	-1581.9001	-1133.5254	1581.0454	-1603.5004	-1239.7346	1699.2749	1119.2928	-1309.4504	1698.8428	1071.7966	-1270.3822	1736.177	1096.6774	-1244.5226	1594.6653	1106.7018	988.81549	1664.2445	1162.2605	955.8468	1702.3104	1181.1436	922.2265	1662.1195	1214.7432	939.79169	1659.2722	1159.9214	999.22217	1668.5692	-1579.4982	1058.4731	1669.8715	-1518.7046	1025.1006	1708.0217	-1551.1504	1059.3073	1672.219	-1585.6512	-552.41095	1664.1971	-294.6196	-557.20453	1665.0148	-210.35924	-555.18427	1701.4109	-257.30972	-586.62854	1662.5349	-259.83356	-506.8215	1666.8843	-254.73952																																														-1068.9023	209.84344	-1624.9734	-1074.4733	248.43437	-1624.1329	-1321.7411	231.66119	1025.0087	-1320.3307	270.39471	1029.3358	848.35577	183.60233	1196.1536	852.12958	222.35928	1193.9955	1088.7476	202.48476	-1428.1744	1082.8323	240.82031	-1432.2235	-1171.9436	1686.9363	-1581.8059	-1170.6986	1647.9563	-1581.7079	-1271.0327	1699.0808	1097.9698	-1271.7162	1660.1105	1099.3278	953.41919	1705.1132	1182.5337	973.00262	1732.1053	1162.3123	1026.4141	1669.1666	-1551.5981	1027.7316	1630.1915	-1552.0474	-554.55591	1664.5629	-256.91644	-553.89099	1625.5708	-256.50024
873	7.2666667	-1038.2517	214.51227	-1644.2517	-1109.3037	203.46283	-1599.5167	-1063.6115	172.62357	-1625.5587	-1054.1652	262.06393	-1634.9546	-1353.099	235.25981	1003.9346	-1281.3978	227.35371	1052.1334	-1323.1425	194.15704	1020.8188	-1284.6282	287.91156	1052.7322	813.85065	187.6649	1209.5757	892.42096	178.38046	1179.1847	844.27124	145.48599	1198.2146	860.53552	292.52954	1167.3118	1115.7964	209.75504	-1401.7347	1056.246	194.10368	-1460.2252	1094.9636	162.07039	-1423.9211	1069.864	238.62157	-1425.9838	-1204.4685	1685.9375	-1563.3434	-1129.1061	1688.3695	-1606.6429	-1173.1145	1724.3784	-1581.9714	-1133.5309	1581.0538	-1603.5195	-1239.7417	1699.2726	1119.293	-1309.5221	1699.0034	1071.8644	-1270.3744	1736.1628	1096.6786	-1244.5935	1594.2385	1106.4099	988.85535	1664.2626	1162.2802	955.69592	1702.2938	1181.0757	922.60205	1662.1495	1214.9028	939.78601	1659.3118	1159.8989	999.24182	1668.5745	-1579.494	1058.7301	1669.9806	-1518.6808	1025.0851	1708.0096	-1551.1461	1059.3274	1672.2141	-1585.6302	-552.40875	1664.1857	-294.61606	-557.21405	1665.0256	-210.35013	-555.19336	1701.4178	-257.30899	-586.6153	1662.5322	-259.82147	-506.85107	1666.8546	-254.74858																																														-1068.9735	209.73465	-1624.9089	-1074.5498	248.32802	-1624.2332	-1321.7892	231.80745	1024.9816	-1320.3969	270.54654	1029.2648	848.05469	183.62308	1196.3455	851.90039	222.38647	1194.4454	1088.6761	202.62715	-1428.3722	1082.7362	240.94211	-1432.5771	-1171.9424	1686.9871	-1582.0312	-1170.7203	1648.0063	-1582.0938	-1271.1106	1699.1516	1097.9719	-1271.8859	1660.1831	1099.3336	953.33484	1705.0017	1182.4139	972.6861	1731.984	1161.957	1026.4977	1669.2186	-1551.631	1027.9169	1630.2474	-1552.118	-554.55914	1664.5614	-256.90543	-553.88824	1625.5696	-256.47852
874	7.275	-1038.2764	214.54333	-1644.2233	-1109.2986	203.51268	-1599.5739	-1063.558	173.09637	-1625.785	-1054.1805	262.12476	-1634.9823	-1353.0364	235.03065	1003.9383	-1281.3557	227.16206	1052.3344	-1323.142	194.18272	1020.8447	-1284.604	287.92337	1052.694	813.81683	187.69168	1209.4502	892.41644	178.42833	1179.2084	844.29205	145.51434	1198.1791	860.38147	292.40842	1167.2881	1115.8082	209.74382	-1401.7119	1056.2056	194.04369	-1460.2095	1095.0178	162.18806	-1423.8774	1069.8687	238.63634	-1425.9689	-1204.4891	1685.9355	-1563.3168	-1129.0989	1688.2247	-1606.1404	-1173.1083	1724.3864	-1581.9673	-1133.5276	1581.0585	-1603.519	-1239.7173	1699.2373	1119.2854	-1309.5391	1699.0333	1071.8746	-1270.374	1736.1655	1096.6682	-1244.5679	1594.4667	1106.564	988.83936	1664.2417	1162.2677	955.78241	1702.2682	1181.0858	922.64441	1662.0424	1214.7917	939.82855	1659.2932	1159.9062	999.23956	1668.5817	-1579.5035	1058.7173	1669.9625	-1518.6798	1025.0887	1708.0046	-1551.1405	1059.3191	1672.1268	-1585.4493	-552.49646	1664.1598	-294.61224	-557.38245	1665.2498	-210.20935	-555.18762	1701.4309	-257.30603	-586.63324	1662.5427	-259.82602	-506.84439	1666.8555	-254.73824																																														-1068.7906	209.80406	-1625.0397	-1074.2933	248.40594	-1624.2561	-1321.84	231.60611	1025.001	-1320.4922	270.34464	1029.3032	848.05524	183.65649	1196.2766	851.87988	222.42033	1194.3434	1088.7145	202.60699	-1428.3032	1082.7402	240.91768	-1432.498	-1171.8937	1686.9252	-1581.8317	-1170.6301	1647.9459	-1581.6908	-1271.1366	1699.1455	1097.9507	-1271.9396	1660.1771	1099.3007	953.49615	1704.8981	1182.3872	972.91681	1731.8751	1161.9893	1026.493	1669.2142	-1551.6332	1027.9039	1630.2429	-1552.1281	-554.68524	1664.6479	-256.80194	-554.15259	1625.6553	-256.26755
875	7.2833333	-1038.2992	214.49799	-1644.1842	-1109.313	203.5571	-1599.5742	-1063.5288	173.07275	-1625.8132	-1054.158	262.10516	-1634.9661	-1353.0209	235.01482	1003.879	-1281.2686	227.07422	1052.3361	-1323.0831	194.16446	1020.7987	-1284.6206	287.85956	1052.7513	813.86041	187.69695	1209.582	892.49066	178.44798	1179.1577	844.28821	145.56535	1198.1262	860.49915	292.53088	1167.2792	1115.804	209.74167	-1401.7201	1056.2391	194.07358	-1460.2021	1095.0148	162.16734	-1423.8772	1069.8827	238.63411	-1425.915	-1204.5366	1686.0076	-1563.1926	-1129.1469	1688.345	-1606.5931	-1173.1068	1724.38	-1581.964	-1133.5508	1581.0881	-1603.5751	-1239.7466	1699.2748	1119.2893	-1309.4679	1698.8795	1071.8177	-1270.4187	1736.2271	1096.6912	-1244.6022	1594.2992	1106.2814	988.83655	1664.2498	1162.2379	955.93555	1702.6377	1181.233	922.5495	1662.0089	1214.7611	939.79828	1659.2889	1159.8895	999.23309	1668.5769	-1579.5048	1058.855	1670.1536	-1518.6512	1025.0975	1708.0043	-1551.1464	1059.312	1672.1625	-1585.5514	-552.40961	1664.1881	-294.62787	-557.23029	1665.032	-210.34508	-555.18018	1701.4097	-257.31668	-586.61328	1662.5319	-259.83853	-506.81125	1666.8899	-254.73857																																														-1068.7233	209.81062	-1625.0721	-1074.1824	248.41881	-1624.2935	-1321.771	231.55647	1024.9832	-1320.4117	270.29102	1029.3179	848.07996	183.67181	1196.3416	851.9375	222.4381	1194.526	1088.7241	202.61852	-1428.3075	1082.7661	240.93159	-1432.5037	-1171.9436	1687.0181	-1581.9557	-1170.7301	1648.037	-1581.947	-1271.0723	1699.097	1097.9602	-1271.7584	1660.1259	1099.2925	953.95416	1704.9492	1182.377	973.61975	1731.8386	1162.098	1026.5782	1669.3	-1551.5945	1028.0692	1630.3312	-1552.0457	-554.56671	1664.5657	-256.91272	-553.91754	1625.5735	-256.48517
876	7.2916667	-1038.2716	214.49609	-1644.2032	-1109.3094	203.48615	-1599.5406	-1063.5785	173.1001	-1625.7804	-1054.1519	262.08463	-1634.9683	-1352.981	235.45378	1003.8974	-1281.3717	227.18207	1052.3457	-1323.0673	194.16837	1020.819	-1284.6146	287.93295	1052.7078	813.84717	187.66422	1209.5244	892.4024	178.32533	1179.1951	844.26239	145.51711	1198.1541	860.44562	292.31961	1167.4327	1115.7384	209.44206	-1401.5664	1056.2621	194.02148	-1460.1376	1095.0386	162.22134	-1423.8693	1069.885	238.63583	-1425.9294	-1204.4783	1685.9451	-1563.3354	-1129.1486	1688.3412	-1606.6044	-1173.1025	1724.3807	-1581.9791	-1133.5364	1581.017	-1603.4814	-1239.7419	1699.2677	1119.2845	-1309.4749	1698.8966	1071.8212	-1270.3494	1736.1299	1096.6532	-1244.593	1594.3027	1106.3651	988.78064	1664.2133	1162.2264	955.67816	1702.4404	1181.1112	922.19891	1662.1071	1214.7909	939.78387	1659.2996	1159.9359	999.23523	1668.6069	-1579.5366	1058.7277	1669.9758	-1518.6752	1025.089	1708.0126	-1551.1481	1059.3041	1672.1588	-1585.5516	-552.40466	1664.1932	-294.62717	-557.40826	1665.2532	-210.18506	-555.17804	1701.4172	-257.31467	-586.62921	1662.5398	-259.83258	-506.80743	1666.8873	-254.74767																																														-1068.7834	209.76714	-1625.0199	-1074.2633	248.37193	-1624.2194	-1321.6223	231.83148	1025.1134	-1320.1368	270.55228	1029.5287	848.07666	183.59489	1196.3086	851.95935	222.35565	1194.4301	1088.7841	202.45354	-1428.1104	1082.8254	240.78326	-1432.1511	-1171.9393	1686.98	-1582.0254	-1170.7272	1647.9988	-1582.0737	-1271.0511	1699.1011	1097.9739	-1271.7898	1660.1329	1099.3636	953.37805	1705.0964	1182.4233	972.92999	1732.0546	1162.1262	1026.4948	1669.2341	-1551.6498	1027.9073	1630.2629	-1552.1541	-554.64478	1664.6677	-256.82181	-554.07898	1625.6753	-256.29889
